<?xml version="1.0" encoding="utf-8"?>
<!-- Generator: Adobe Illustrator 16.0.0, SVG Export Plug-In . SVG Version: 6.00 Build 0)  -->
<!DOCTYPE svg PUBLIC "-//W3C//DTD SVG 1.1//EN" "http://www.w3.org/Graphics/SVG/1.1/DTD/svg11.dtd">
<svg version="1.1" id="B1" xmlns="http://www.w3.org/2000/svg" xmlns:xlink="http://www.w3.org/1999/xlink" x="0px" y="0px"
	 width="2500px" height="702.07px" viewBox="0 0 2500 702.07" enable-background="new 0 0 2500 702.07" xml:space="preserve">
<g>
	<path fill="#13131A" d="M600.098,256.256c-14.211,113.092-62.74,177.413-101.721,211.766
		c-29.221,25.762-53.078,34.678-53.078,34.678s-34.506-12.896-71.357-52.479c-27.078-29.087-55.428-72.589-72.278-135.974
		c-4.713-17.732-8.528-37.025-11.163-57.99l-3.383,1.242c1.231,24.804,4.027,47.575,8.038,68.459
		c15.497,80.75,49.144,133.363,80.665,166.526c36.135,38.022,69.479,50.485,69.479,50.485s28.133-10.516,60.721-41.696
		c41.842-40.031,91.031-114.127,97.461-243.774L600.098,256.256"/>
	<path fill="#13131A" d="M445.299,220.382l-96.797,35.571c1.859,13.039,4.283,25.612,7.266,37.688l89.531-32.898l8.115,2.983
		l73.885,27.15l7.531,2.765c1.934-7.819,3.629-15.846,5.09-24.071c0.797-4.479,1.521-9.02,2.178-13.617l-56.215-20.658
		L445.299,220.382"/>
	<path fill="#FFFFFF" d="M445.299,159.102l158.182,58.128c-11.439,230.62-158.182,285.47-158.182,285.47
		s-146.742-54.85-158.182-285.47L445.299,159.102z M542.098,255.953l-96.799-35.571l-96.797,35.571
		c3.984,27.933,10.564,53.732,19.668,77.063c10.443,26.767,24.256,50.421,41.051,70.312c11.076,13.111,23.197,24.358,36.078,33.481
		c12.887-9.123,25.008-20.37,36.078-33.481c16.797-19.891,30.609-43.545,41.053-70.312
		C531.535,309.686,538.113,283.886,542.098,255.953z"/>
	
		<linearGradient id="SVGID_1_" gradientUnits="userSpaceOnUse" x1="-122.9912" y1="-1107.9951" x2="-121.9907" y2="-1107.9951" gradientTransform="matrix(-66.9089 -38.6299 -38.6299 66.9089 -50452.9414 69741.8359)">
		<stop  offset="0" style="stop-color:#C3CEFE"/>
		<stop  offset="1" style="stop-color:#FFFFFF"/>
	</linearGradient>
	<path fill="url(#SVGID_1_)" d="M539.92,269.57c-1.461,8.226-3.156,16.252-5.09,24.071c-3.41,13.794-7.547,26.937-12.4,39.375
		c-6.881,17.641-15.229,33.927-24.928,48.676c-1.91,13.169-2.895,26.64-2.895,40.339c0,15.664,1.293,31.031,3.77,45.99
		c38.98-34.353,87.51-98.674,101.721-211.766c1.563-12.413,2.709-25.412,3.383-39.026l-13.721-5.043
		C570.662,228.93,553.869,248.237,539.92,269.57z"/>
	
		<linearGradient id="SVGID_2_" gradientUnits="userSpaceOnUse" x1="-122.7598" y1="-1107.9443" x2="-121.7598" y2="-1107.9443" gradientTransform="matrix(-124.5537 -71.9111 -71.9111 124.5537 -94461.1328 129631.6875)">
		<stop  offset="0" style="stop-color:#C3CEFE"/>
		<stop  offset="1" style="stop-color:#FFFFFF"/>
	</linearGradient>
	<path fill="url(#SVGID_2_)" d="M497.502,381.692c-5.02,7.635-10.396,14.856-16.125,21.636
		c-11.07,13.111-23.191,24.358-36.078,33.481c-12.881-9.123-25.002-20.37-36.078-33.481c-7.957-9.422-15.242-19.692-21.818-30.735
		c-7.977,24.558-12.641,50.607-13.461,77.627c36.852,39.583,71.357,52.479,71.357,52.479s23.857-8.916,53.078-34.678
		c-2.477-14.959-3.77-30.326-3.77-45.99C494.607,408.332,495.592,394.861,497.502,381.692z"/>
	
		<linearGradient id="SVGID_3_" gradientUnits="userSpaceOnUse" x1="-122.978" y1="-1107.9971" x2="-121.978" y2="-1107.9971" gradientTransform="matrix(-67.9018 -39.2031 -39.2031 67.9018 -51216.1797 70658.4297)">
		<stop  offset="0" style="stop-color:#C3CEFE"/>
		<stop  offset="1" style="stop-color:#FFFFFF"/>
	</linearGradient>
	<path fill="url(#SVGID_3_)" d="M542.098,255.953c-0.656,4.598-1.381,9.139-2.178,13.617c13.949-21.333,30.742-40.641,49.84-57.384
		l-37.313-13.709c-23.959,9.234-46.324,21.686-66.564,36.817L542.098,255.953z"/>
	
		<linearGradient id="SVGID_4_" gradientUnits="userSpaceOnUse" x1="-122.7388" y1="-1107.939" x2="-121.7388" y2="-1107.939" gradientTransform="matrix(-137.9585 -79.6504 -79.6504 137.9585 -104704.8906 143405.0156)">
		<stop  offset="0" style="stop-color:#C3CEFE"/>
		<stop  offset="1" style="stop-color:#FFFFFF"/>
	</linearGradient>
	<path fill="url(#SVGID_4_)" d="M301.663,314.246c16.851,63.385,45.2,106.887,72.278,135.974c0.82-27.02,5.484-53.069,13.461-77.627
		c-7.311-12.269-13.738-25.49-19.232-39.576c-4.855-12.438-8.992-25.581-12.402-39.375c-2.982-12.076-5.406-24.649-7.266-37.688
		l96.797-35.571l40.584,14.913c20.24-15.132,42.605-27.583,66.564-36.817l-51.617-18.967
		c-59.043,8.801-112.049,36.108-152.916,75.837C329.992,272.765,314.406,292.568,301.663,314.246z"/>
	
		<linearGradient id="SVGID_5_" gradientUnits="userSpaceOnUse" x1="-122.7261" y1="-1107.9438" x2="-121.7261" y2="-1107.9438" gradientTransform="matrix(-143.9514 -83.1103 -83.1103 143.9514 -109301.3359 149563.3594)">
		<stop  offset="0" style="stop-color:#C3CEFE"/>
		<stop  offset="1" style="stop-color:#FFFFFF"/>
	</linearGradient>
	<path fill="url(#SVGID_5_)" d="M347.914,255.348c40.867-39.729,93.873-67.036,152.916-75.837l-55.531-20.409l-158.182,58.128
		c0.676,13.614,1.822,26.613,3.383,39.026c2.635,20.965,6.45,40.258,11.163,57.99C314.406,292.568,329.992,272.765,347.914,255.348z
		"/>
	<polygon fill="#FFFFFF" points="897.936,410.916 897.695,301.715 857.375,394.115 829.533,394.115 789.213,301.715 
		789.213,410.916 751.053,410.916 751.053,242.672 797.854,242.672 843.453,342.756 889.055,242.672 935.615,242.672 
		935.615,410.916 	"/>
	<path fill="#FFFFFF" d="M1037.611,424.357c-9.602,23.52-25.922,35.041-49.922,35.041c-14.4,0-26.16-4.32-37.68-13.201l17.279-28.32
		c6,4.801,11.041,6.959,17.041,6.959c7.439,0,12.721-3.359,16.08-10.32l3.119-6.479l-53.76-126.484h42.721l31.68,85.922
		l28.082-85.922h41.279L1037.611,424.357z"/>
	<path fill="#FFFFFF" d="M1180.408,242.912c41.52,0,65.521,20.641,65.521,56.402c0,37.201-24.002,58.561-65.521,58.561h-43.922
		v53.041h-19.201V242.912H1180.408z M1136.486,339.395h43.201c30.24,0,47.762-13.439,47.762-39.6
		c0-25.441-17.521-38.402-47.762-38.402h-43.201V339.395z"/>
	<path fill="#FFFFFF" d="M1293.924,312.514c8.4-18.48,24.002-28.561,45.361-28.801v18.961c-26.641-0.48-43.201,16.08-45.361,41.041
		v67.201h-18.719V284.434h18.719V312.514z"/>
	<path fill="#FFFFFF" d="M1479.926,347.555c0,37.922-26.641,64.082-64.082,64.082s-64.082-26.16-64.082-64.082
		c0-37.68,26.641-63.602,64.082-63.602S1479.926,309.875,1479.926,347.555z M1370.482,347.795c0,27.84,18.961,47.041,45.361,47.041
		s45.361-19.201,45.361-47.041c0-27.6-18.961-46.801-45.361-46.801S1370.482,320.195,1370.482,347.795z"/>
	<polygon fill="#FFFFFF" points="1580.244,284.434 1600.885,284.434 1558.643,345.875 1604.004,410.916 1582.164,410.916 
		1546.162,359.314 1508.961,410.916 1487.842,410.916 1533.922,345.875 1490.961,284.434 1512.563,284.434 1546.162,332.436 	"/>
	<path fill="#FFFFFF" d="M1670.961,428.916c-7.92,19.441-21.119,29.521-37.92,29.521c-10.561,0-18.961-3.119-26.641-9.359
		l7.92-15.602c5.76,4.08,11.52,6,17.76,6c9.842,0,18.002-6,23.041-17.76l5.281-11.76l-52.322-125.523h19.682l42,104.402
		l40.08-104.402h19.201L1670.961,428.916z"/>
	<polygon fill="#FFFFFF" points="1797.203,410.916 1729.043,242.912 1749.682,242.912 1807.523,388.596 1865.605,242.912 
		1885.766,242.912 1817.125,410.916 	"/>
	<path fill="#FFFFFF" d="M1975.764,242.912c41.52,0,65.521,20.641,65.521,56.402c0,37.201-24.002,58.561-65.521,58.561h-43.922
		v53.041h-19.201V242.912H1975.764z M1931.842,339.395h43.201c30.24,0,47.762-13.439,47.762-39.6
		c0-25.441-17.521-38.402-47.762-38.402h-43.201V339.395z"/>
	<polygon fill="#FFFFFF" points="2193.201,410.916 2092.398,276.033 2092.398,410.916 2073.199,410.916 2073.199,242.912 
		2093.119,242.912 2193.922,378.035 2193.922,242.912 2212.883,242.912 2212.883,410.916 	"/>
</g>
</svg>
